<svg width="12" height="12" viewBox="0 0 12 12" fill="none" xmlns="http://www.w3.org/2000/svg">
<path d="M2.20696 8.31633C1.81643 8.70686 1.81643 9.34002 2.20696 9.73054C2.59748 10.1211 3.23064 10.1211 3.62117 9.73054L2.20696 8.31633ZM11.6348 1.30274C11.6348 0.750452 11.187 0.302736 10.6348 0.302737L1.63476 0.302736C1.08248 0.302736 0.634764 0.750452 0.634764 1.30274C0.634764 1.85502 1.08248 2.30274 1.63476 2.30274L9.63476 2.30274L9.63476 10.3027C9.63476 10.855 10.0825 11.3027 10.6348 11.3027C11.187 11.3027 11.6348 10.855 11.6348 10.3027L11.6348 1.30274ZM3.62117 9.73054L11.3419 2.00984L9.92766 0.59563L2.20696 8.31633L3.62117 9.73054Z" fill="#44C3F9"/>
</svg>
