<svg width="13" height="13" viewBox="0 0 13 13" fill="none" xmlns="http://www.w3.org/2000/svg">
<path d="M0.655239 10.5761C0.197849 11.0168 0.184287 11.7448 0.624948 12.2022C1.06561 12.6596 1.79362 12.6731 2.25101 12.2325L0.655239 10.5761ZM12.8822 1.52239C12.8941 0.887377 12.3889 0.363004 11.7538 0.351175L1.40564 0.1584C0.770622 0.146571 0.246248 0.651765 0.234419 1.28678C0.222589 1.9218 0.727782 2.44617 1.3628 2.458L10.5612 2.62936L10.3898 11.8278C10.378 12.4628 10.8832 12.9872 11.5182 12.999C12.1532 13.0108 12.6776 12.5056 12.6895 11.8706L12.8822 1.52239ZM2.25101 12.2325L12.5303 2.32915L10.9345 0.672797L0.655239 10.5761L2.25101 12.2325Z" fill="white"/>
</svg>
