<svg width="16" height="16" viewBox="0 0 16 16" fill="none" xmlns="http://www.w3.org/2000/svg">
<path d="M7.99687 15.3258C7.63021 15.3258 7.31754 15.1968 7.05888 14.9388C6.80088 14.6801 6.67188 14.3674 6.67188 14.0008V9.32578H1.99687C1.63021 9.32578 1.31754 9.19678 1.05887 8.93878C0.800875 8.68011 0.671875 8.36745 0.671875 8.00078C0.671875 7.63411 0.800875 7.32145 1.05887 7.06278C1.31754 6.80478 1.63021 6.67578 1.99687 6.67578H6.67188V2.00078C6.67188 1.63411 6.80088 1.32145 7.05888 1.06278C7.31754 0.804781 7.63021 0.675781 7.99687 0.675781C8.36354 0.675781 8.67621 0.804781 8.93487 1.06278C9.19287 1.32145 9.32187 1.63411 9.32187 2.00078V6.67578H13.9969C14.3635 6.67578 14.6762 6.80478 14.9349 7.06278C15.1929 7.32145 15.3219 7.63411 15.3219 8.00078C15.3219 8.36745 15.1929 8.68011 14.9349 8.93878C14.6762 9.19678 14.3635 9.32578 13.9969 9.32578H9.32187V14.0008C9.32187 14.3674 9.19287 14.6801 8.93487 14.9388C8.67621 15.1968 8.36354 15.3258 7.99687 15.3258Z" fill="#777E90"/>
</svg>
