<svg width="12" height="12" viewBox="0 0 12 12" fill="none" xmlns="http://www.w3.org/2000/svg">
<path d="M1.73821 8.52336C1.34768 8.91389 1.34768 9.54705 1.73821 9.93758C2.12873 10.3281 2.76189 10.3281 3.15242 9.93758L1.73821 8.52336ZM11.166 1.50977C11.166 0.957483 10.7183 0.509767 10.166 0.509768L1.16601 0.509768C0.613729 0.509768 0.166014 0.957483 0.166014 1.50977C0.166014 2.06205 0.613729 2.50977 1.16601 2.50977L9.16601 2.50977L9.16601 10.5098C9.16601 11.0621 9.61373 11.5098 10.166 11.5098C10.7183 11.5098 11.166 11.0621 11.166 10.5098L11.166 1.50977ZM3.15242 9.93758L10.8731 2.21687L9.45891 0.802661L1.73821 8.52336L3.15242 9.93758Z" fill="#44C3F9"/>
</svg>
