<svg width="19" height="18" viewBox="0 0 19 18" fill="none" xmlns="http://www.w3.org/2000/svg">
    <path d="M0.90625 5.52734L9.81435 17.1649L5.8552 5.52734H0.90625Z" fill="#5EAEC5" />
    <path d="M13.7677 5.52734L9.80859 17.1649L18.7167 5.52734H13.7677Z" fill="#86C6D2" />
    <path d="M9.81462 5.5229H13.7738L9.81462 0.388672L5.85547 5.5229H9.81462Z" fill="#BAF0F0" />
    <path d="M9.81462 5.52734H5.85547L9.81462 17.1649L13.7738 5.52734H9.81462Z" fill="#44A8B9" />
    <path d="M4.89954 0.388672L0.90625 5.5229H5.8552L4.89954 0.388672Z" fill="#A0DCE6" />
    <path d="M18.7224 5.5229L14.7291 0.388672L13.7734 5.5229H18.7224Z" fill="#BEE6E6" />
    <path d="M14.7234 0.388672H9.80859L13.7677 5.5229L14.7234 0.388672Z" fill="#B4E6F0" />
    <path d="M9.80934 0.388672H4.89453L5.85019 5.5229L9.80934 0.388672Z" fill="#B4E6F0" />
</svg>
