<svg width="15" height="16" viewBox="0 0 15 16" fill="none" xmlns="http://www.w3.org/2000/svg">
<path d="M2.28601 10.979C1.74907 11.4963 1.73315 12.3509 2.25045 12.8878C2.76774 13.4248 3.62237 13.4407 4.15931 12.9234L2.28601 10.979ZM14.8517 2.07299C14.8656 1.32754 14.2726 0.711971 13.5271 0.698084L1.37921 0.471784C0.633752 0.457897 0.0181832 1.05095 0.00429632 1.79641C-0.00959056 2.54186 0.583463 3.15743 1.32892 3.17132L12.127 3.37247L11.9259 14.1706C11.912 14.9161 12.5051 15.5316 13.2505 15.5455C13.996 15.5594 14.6115 14.9663 14.6254 14.2209L14.8517 2.07299ZM4.15931 12.9234L14.4386 3.02006L12.5653 1.07564L2.28601 10.979L4.15931 12.9234Z" fill="url(#paint0_linear_8917_5264)"/>
<defs>
<linearGradient id="paint0_linear_8917_5264" x1="2.45949" y1="12.6901" x2="3.64295" y2="13.6991" gradientUnits="userSpaceOnUse">
<stop offset="0.00972591" stop-color="#44C3F9"/>
<stop offset="1" stop-color="#27E4A0"/>
</linearGradient>
</defs>
</svg>
