<svg width="10" height="11" viewBox="0 0 10 11" fill="none" xmlns="http://www.w3.org/2000/svg">
<path d="M1.3636 7.45052C1.01213 7.80199 1.01213 8.37184 1.3636 8.72331C1.71508 9.07478 2.28492 9.07478 2.6364 8.72331L1.3636 7.45052ZM9.97107 1.01585C9.97107 0.51879 9.56812 0.115846 9.07107 0.115846L0.971068 0.115847C0.474012 0.115846 0.0710681 0.51879 0.0710683 1.01585C0.0710683 1.5129 0.474012 1.91585 0.971068 1.91585H8.17107V9.11585C8.17107 9.6129 8.57401 10.0158 9.07107 10.0158C9.56812 10.0158 9.97107 9.6129 9.97107 9.11585L9.97107 1.01585ZM2.6364 8.72331L9.70746 1.65224L8.43467 0.37945L1.3636 7.45052L2.6364 8.72331Z" fill="currentColor"/>
</svg>
