<svg width="25" height="25" viewBox="0 0 25 25" fill="none" xmlns="http://www.w3.org/2000/svg">
<path d="M20.4991 9.94245C20.4998 10.1187 20.454 10.2919 20.3662 10.4447C20.2784 10.5975 20.1517 10.7243 19.9991 10.8125L12.9991 14.8125C12.8471 14.9002 12.6747 14.9464 12.4991 14.9464C12.3236 14.9464 12.1512 14.9002 11.9991 14.8125L4.99914 10.8125C4.84524 10.7252 4.71723 10.5988 4.62817 10.4459C4.53911 10.2931 4.49219 10.1193 4.49219 9.94245C4.49219 9.76556 4.53911 9.59183 4.62817 9.43899C4.71723 9.28615 4.84524 9.15967 4.99914 9.07245L11.9991 5.07245C12.1512 4.98468 12.3236 4.93848 12.4991 4.93848C12.6747 4.93848 12.8471 4.98468 12.9991 5.07245L19.9991 9.07245C20.1517 9.16056 20.2784 9.28742 20.3662 9.4402C20.454 9.59298 20.4998 9.76624 20.4991 9.94245Z" fill="url(#paint0_linear_9159_925)"/>
<path d="M19.9991 15.0723L18.2891 14.0723L13.9891 16.5323C13.5368 16.7967 13.0231 16.9381 12.4991 16.9423C11.9804 16.9424 11.4705 16.808 11.0191 16.5523L6.70914 14.0923L4.99914 15.0923C4.84524 15.1795 4.71723 15.306 4.62817 15.4588C4.53911 15.6116 4.49219 15.7854 4.49219 15.9623C4.49219 16.1392 4.53911 16.3129 4.62817 16.4657C4.71723 16.6186 4.84524 16.745 4.99914 16.8323L11.9991 20.8323C12.1512 20.92 12.3236 20.9662 12.4991 20.9662C12.6747 20.9662 12.8471 20.92 12.9991 20.8323L19.9991 16.8323C20.153 16.745 20.281 16.6186 20.3701 16.4657C20.4592 16.3129 20.5061 16.1392 20.5061 15.9623C20.5061 15.7854 20.4592 15.6116 20.3701 15.4588C20.281 15.306 20.153 15.1795 19.9991 15.0923V15.0723Z" fill="url(#paint1_linear_9159_925)"/>
<defs>
<linearGradient id="paint0_linear_9159_925" x1="3.30085" y1="4.29385" x2="22.5822" y2="11.5112" gradientUnits="userSpaceOnUse">
<stop offset="0.00972591" stop-color="#44C3F9"/>
<stop offset="1" stop-color="#27E4A0"/>
</linearGradient>
<linearGradient id="paint1_linear_9159_925" x1="3.30033" y1="13.6282" x2="20.276" y2="22.8567" gradientUnits="userSpaceOnUse">
<stop offset="0.00972591" stop-color="#44C3F9"/>
<stop offset="1" stop-color="#27E4A0"/>
</linearGradient>
</defs>
</svg>
