<svg width="11" height="12" viewBox="0 0 11 12" fill="none" xmlns="http://www.w3.org/2000/svg">
<path d="M0.730393 9.69914C0.339869 10.0897 0.339869 10.7228 0.730393 11.1134C1.12092 11.5039 1.75408 11.5039 2.14461 11.1134L0.730393 9.69914ZM11 1.84375C11 1.29147 10.5523 0.84375 10 0.843751L1 0.84375C0.447715 0.84375 -1.77336e-07 1.29147 -1.77336e-07 1.84375C-1.77336e-07 2.39604 0.447715 2.84375 1 2.84375L9 2.84375L9 10.8438C9 11.396 9.44771 11.8438 10 11.8438C10.5523 11.8438 11 11.396 11 10.8438L11 1.84375ZM2.14461 11.1134L10.7071 2.55086L9.29289 1.13664L0.730393 9.69914L2.14461 11.1134Z" fill="white"/>
</svg>
