<svg width="12" height="12" viewBox="0 0 12 12" fill="none" xmlns="http://www.w3.org/2000/svg">
<path d="M1.29289 9.54289C0.902369 9.93342 0.902369 10.5666 1.29289 10.9571C1.68342 11.3476 2.31658 11.3476 2.70711 10.9571L1.29289 9.54289ZM11.5 1.75C11.5 1.19771 11.0523 0.749999 10.5 0.75L1.5 0.75C0.947716 0.75 0.5 1.19771 0.5 1.75C0.5 2.30228 0.947716 2.75 1.5 2.75L9.5 2.75L9.5 10.75C9.5 11.3023 9.94772 11.75 10.5 11.75C11.0523 11.75 11.5 11.3023 11.5 10.75L11.5 1.75ZM2.70711 10.9571L11.2071 2.45711L9.79289 1.04289L1.29289 9.54289L2.70711 10.9571Z" fill="url(#paint0_linear_10970_4229)"/>
<defs>
<linearGradient id="paint0_linear_10970_4229" x1="1.32183" y1="10.8371" x2="6.31527" y2="13.2115" gradientUnits="userSpaceOnUse">
<stop offset="0.00972591" stop-color="#44C3F9"/>
<stop offset="1" stop-color="#27E4A0"/>
</linearGradient>
</defs>
</svg>
