<svg width="1124" height="1110" viewBox="0 0 1124 1110" fill="none" xmlns="http://www.w3.org/2000/svg">
<rect width="1124" height="1110" rx="555" fill="white"/>
<path d="M620.72 525.624C618.217 537.313 614.881 549.003 612.379 560.693C600.704 609.957 589.863 658.383 578.189 707.648C577.354 712.657 574.854 714.327 569.848 714.327C559.007 714.327 547.333 714.327 536.491 715.163C531.488 715.163 528.985 713.491 528.153 708.482C515.643 651.704 502.299 595.761 488.958 538.983C487.29 533.139 485.622 526.459 483.954 520.614C483.954 583.237 483.954 645.025 483.954 706.812C483.954 714.327 482.287 715.997 474.781 715.163C458.101 714.327 441.424 715.163 424.744 715.163C420.576 715.163 418.906 714.327 418.906 709.318C418.906 635.84 418.906 561.528 418.906 488.05C418.906 463.001 438.921 443.797 463.939 443.797C481.452 443.797 499.799 443.797 517.311 443.797C524.817 443.797 527.317 445.467 528.985 452.981C535.659 488.05 543.997 523.119 550.668 558.188C550.668 559.023 551.503 559.858 551.503 561.528C554.838 559.858 554.838 557.353 554.838 554.848C562.344 520.614 569.848 485.545 576.521 451.311C577.354 446.302 579.857 444.632 584.86 444.632C602.372 444.632 619.884 444.632 637.397 444.632C666.585 444.632 685.765 463.836 685.765 492.225C685.765 549.838 685.765 607.451 685.765 665.065C685.765 679.259 685.765 694.287 685.765 708.482C685.765 714.327 684.933 715.997 678.26 715.997C661.582 715.163 644.07 715.997 627.39 715.997C621.552 715.997 620.72 714.327 620.72 709.318C620.72 650.87 621.552 592.422 621.552 533.974C621.552 531.469 621.552 528.964 621.552 526.459C621.552 525.624 620.72 525.624 620.72 525.624Z" fill="url(#paint0_linear_11002_3348)"/>
<path d="M245.439 712.657C217.085 712.657 188.731 712.657 160.377 712.657C142.865 712.657 131.19 704.308 126.186 687.608C123.684 679.259 122.016 670.074 119.515 660.889C117.847 655.043 120.348 654.21 125.352 654.21C156.208 654.21 187.063 654.21 218.753 654.21C246.272 654.21 273.792 654.21 301.312 654.21C315.489 654.21 321.326 649.2 322.16 635.006C322.994 621.645 321.326 612.46 310.485 609.121C307.149 608.286 304.648 608.286 302.146 608.286C258.781 608.286 216.251 608.286 172.886 608.286C148.702 608.286 133.691 598.266 127.02 574.887C117.013 543.158 117.013 511.429 126.186 479.701C132.858 454.651 148.702 443.797 174.554 443.797C231.262 443.797 287.135 443.797 343.842 443.797C365.525 443.797 381.37 458.826 383.038 480.536C384.705 503.08 384.705 503.08 362.19 503.08C309.651 503.08 257.947 503.08 205.41 503.08C189.565 503.08 184.561 508.09 184.561 523.119C183.728 541.488 188.731 546.498 207.078 546.498C246.272 546.498 284.633 547.333 323.828 546.498C358.019 545.663 376.367 557.353 383.038 594.926C388.041 622.481 388.041 650.034 379.702 676.753C372.196 702.639 357.185 713.491 330.5 713.491C301.312 713.491 272.958 713.491 245.439 712.657Z" fill="url(#paint1_linear_11002_3348)"/>
<path d="M806.367 444.633C843.088 444.633 879.812 444.633 917.369 444.633C930.721 444.633 944.074 444.633 957.429 444.633C984.136 444.633 1003.33 463.87 1005 489.8C1005 495.655 1005 501.51 1005 506.528C1005 511.547 1003.33 512.383 999.157 512.383C978.293 512.383 957.429 512.383 937.398 512.383C930.721 512.383 929.052 514.056 929.052 520.747C929.052 583.479 929.052 646.21 929.052 708.94C929.052 715.633 928.217 717.307 920.707 717.307C884.819 717.307 848.931 717.307 813.878 717.307C811.374 717.307 808.871 717.307 805.531 717.307C806.367 714.797 805.531 712.289 806.367 709.778C822.224 709.778 838.081 709.778 853.938 709.778C858.945 709.778 859.781 708.106 859.781 703.088C859.781 621.953 858.945 541.658 860.614 460.525C860.614 455.506 858.945 454.67 853.938 454.67C838.081 454.67 822.224 454.67 806.367 454.67C806.367 450.488 806.367 447.142 806.367 444.633Z" fill="url(#paint2_linear_11002_3348)"/>
<path d="M806.37 708.106C804.701 710.614 805.537 713.124 805.537 715.634C783.003 723.16 759.634 731.526 737.098 739.89C732.091 741.562 731.258 740.725 731.258 735.707C731.258 680.503 732.091 626.137 732.091 570.933C732.091 539.149 732.927 507.365 732.927 475.581C732.927 469.726 734.596 467.216 739.603 465.544C762.136 458.016 784.672 450.488 806.37 443.797C806.37 447.142 806.37 449.652 806.37 452.997C806.37 486.454 806.37 519.075 806.37 552.531C806.37 605.226 806.37 657.083 806.37 708.106ZM774.656 581.806C774.656 574.278 769.648 569.26 761.303 569.26C752.122 569.26 744.61 575.115 744.61 583.479C744.61 590.17 750.453 596.025 758.798 596.025C767.146 596.025 773.822 590.17 774.656 581.806Z" fill="url(#paint3_linear_11002_3348)"/>
<path d="M764.722 433.002C745.535 433.002 731.353 421.293 730.517 404.567C729.684 388.677 744.7 371.951 763.054 369.442C780.573 366.933 795.59 375.296 801.428 389.514C808.104 408.749 792.251 430.493 769.727 433.002C767.226 433.002 765.558 433.002 764.722 433.002Z" fill="#FF2828"/>
<defs>
<linearGradient id="paint0_linear_11002_3348" x1="178.426" y1="535.041" x2="659.036" y2="680.131" gradientUnits="userSpaceOnUse">
<stop stop-color="#066DD5"/>
<stop offset="1" stop-color="#10E349"/>
</linearGradient>
<linearGradient id="paint1_linear_11002_3348" x1="178.423" y1="535.041" x2="659.033" y2="680.131" gradientUnits="userSpaceOnUse">
<stop stop-color="#066DD5"/>
<stop offset="1" stop-color="#10E349"/>
</linearGradient>
<linearGradient id="paint2_linear_11002_3348" x1="714" y1="493.502" x2="959.007" y2="727.495" gradientUnits="userSpaceOnUse">
<stop stop-color="#FF423A"/>
<stop offset="1" stop-color="#FFE815"/>
</linearGradient>
<linearGradient id="paint3_linear_11002_3348" x1="714" y1="493.5" x2="959.007" y2="727.493" gradientUnits="userSpaceOnUse">
<stop stop-color="#FF423A"/>
<stop offset="1" stop-color="#FFE815"/>
</linearGradient>
</defs>
</svg>
