<svg width="11" height="11" viewBox="0 0 11 11" fill="none" xmlns="http://www.w3.org/2000/svg">
<path d="M0.944094 9.16933C0.592568 9.52075 0.59248 10.0906 0.943897 10.4421C1.29531 10.7937 1.86516 10.7937 2.21669 10.4423L0.944094 9.16933ZM10.5732 1.71562C10.5733 1.21856 10.1704 0.815559 9.67338 0.815482L1.57338 0.814231C1.07632 0.814154 0.673315 1.21703 0.673238 1.71409C0.673161 2.21115 1.07604 2.61415 1.5731 2.61423L8.7731 2.61534L8.77199 9.81534C8.77191 10.3124 9.17479 10.7154 9.67185 10.7155C10.1689 10.7156 10.5719 10.3127 10.572 9.81562L10.5732 1.71562ZM2.21669 10.4423L10.3095 2.35198L9.03694 1.07899L0.944094 9.16933L2.21669 10.4423Z" fill="url(#paint0_linear_10134_2846)"/>
<defs>
<linearGradient id="paint0_linear_10134_2846" x1="3.36328" y1="9.02196" x2="4.34133" y2="9.6927" gradientUnits="userSpaceOnUse">
<stop offset="0.00972591" stop-color="#44C3F9"/>
<stop offset="1" stop-color="#27E4A0"/>
</linearGradient>
</defs>
</svg>
