<svg width="651" height="615" viewBox="0 0 651 615" fill="none" xmlns="http://www.w3.org/2000/svg">
<g clip-path="url(#clip0_13109_5831)">
<rect width="651" height="615" fill="url(#paint0_linear_13109_5831)"/>
<mask id="mask0_13109_5831" style="mask-type:alpha" maskUnits="userSpaceOnUse" x="386" y="364" width="431" height="431">
<rect x="386" y="521.525" width="315.05" height="315.05" transform="rotate(-30 386 521.525)" fill="#D9D9D9"/>
</mask>
<g mask="url(#mask0_13109_5831)">
<path d="M626.996 700.697C623.964 702.447 620.745 703.548 617.337 704C613.937 704.447 610.593 704.23 607.306 703.349L533.785 683.649C530.498 682.768 527.493 681.284 524.773 679.197C522.047 677.102 519.81 674.539 518.059 671.507L479.663 605.002C477.912 601.971 476.811 598.751 476.36 595.344C475.913 591.944 476.13 588.6 477.01 585.313L496.71 511.792C497.591 508.504 499.075 505.5 501.162 502.779C503.257 500.054 505.82 497.816 508.852 496.066L575.357 457.669C578.389 455.919 581.608 454.818 585.016 454.367C588.416 453.919 591.759 454.136 595.047 455.017L668.568 474.717C671.855 475.598 674.859 477.082 677.58 479.169C680.306 481.264 682.543 483.827 684.294 486.859L722.69 553.364C724.441 556.395 725.541 559.615 725.993 563.022C726.44 566.422 726.223 569.766 725.342 573.054L705.643 646.574C704.762 649.862 703.278 652.866 701.19 655.587C699.096 658.312 696.532 660.55 693.501 662.3L626.996 700.697ZM633.994 636.025C637.215 634.165 639.287 631.514 640.209 628.071C641.129 624.64 640.659 621.314 638.799 618.093C636.939 614.872 634.292 612.798 630.856 611.871C627.418 610.956 624.088 611.429 620.867 613.288C617.646 615.148 615.576 617.793 614.656 621.224C613.734 624.667 614.203 627.999 616.062 631.22C617.922 634.441 620.571 636.509 624.01 637.424C627.445 638.351 630.773 637.885 633.994 636.025ZM607.74 590.551C610.961 588.692 613.033 586.04 613.955 582.598C614.875 579.167 614.404 575.841 612.545 572.62L586.291 527.146C584.431 523.925 581.783 521.851 578.348 520.924C574.91 520.009 571.58 520.481 568.359 522.341C565.138 524.201 563.067 526.846 562.148 530.277C561.226 533.72 561.694 537.052 563.554 540.273L589.808 585.747C591.668 588.968 594.317 591.036 597.755 591.951C601.191 592.878 604.519 592.411 607.74 590.551Z" fill="white" fill-opacity="0.18"/>
</g>
</g>
<defs>
<linearGradient id="paint0_linear_13109_5831" x1="-48.4514" y1="-39.6131" x2="793.895" y2="169.063" gradientUnits="userSpaceOnUse">
<stop offset="0.00972591" stop-color="#44C3F9"/>
<stop offset="1" stop-color="#27E4A0"/>
</linearGradient>
<clipPath id="clip0_13109_5831">
<rect width="651" height="615" fill="white"/>
</clipPath>
</defs>
</svg>
