<svg width="9" height="10" viewBox="0 0 9 10" fill="none" xmlns="http://www.w3.org/2000/svg">
<path d="M0.434315 7.93431C0.121895 8.24673 0.121895 8.75327 0.434315 9.06569C0.746734 9.3781 1.25327 9.3781 1.56569 9.06569L0.434315 7.93431ZM8.8 1.5C8.8 1.05817 8.44183 0.7 8 0.7L0.8 0.7C0.358172 0.7 2.8711e-07 1.05817 2.8711e-07 1.5C1.18522e-07 1.94183 0.358172 2.3 0.8 2.3H7.2V8.7C7.2 9.14183 7.55817 9.5 8 9.5C8.44183 9.5 8.8 9.14183 8.8 8.7L8.8 1.5ZM1.56569 9.06569L8.56569 2.06569L7.43431 0.934315L0.434315 7.93431L1.56569 9.06569Z" fill="#44C3F9"/>
</svg>
