<svg width="12" height="19" viewBox="0 0 12 19" fill="none" xmlns="http://www.w3.org/2000/svg">
<path d="M1.32467 8.18305C1.99006 7.51766 3.06887 7.51766 3.73426 8.18305L11.4775 15.9263C12.1429 16.5917 12.1429 17.6705 11.4775 18.3359C10.8121 19.0013 9.73329 19.0013 9.0679 18.3359L1.32467 10.5926C0.659274 9.92726 0.659273 8.84844 1.32467 8.18305Z" fill="#D9D9D9"/>
<path d="M10.7973 1.29982C11.4627 1.96522 11.4627 3.04403 10.7973 3.70942L3.73286 10.7739C3.06747 11.4393 1.98865 11.4393 1.32326 10.7739C0.657871 10.1085 0.657871 9.02968 1.32326 8.36429L8.38773 1.29983C9.05312 0.634434 10.1319 0.634433 10.7973 1.29982Z" fill="#D9D9D9"/>
</svg>
