<svg width="15" height="15" viewBox="0 0 15 15" fill="none" xmlns="http://www.w3.org/2000/svg">
<path d="M1.85148 11.051C1.35432 11.53 1.33958 12.3213 1.81856 12.8184C2.29754 13.3156 3.08885 13.3303 3.58602 12.8514L1.85148 11.051ZM14.2478 2.07113C14.2607 1.3809 13.7116 0.810925 13.0213 0.798067L1.77328 0.58853C1.08305 0.575672 0.513075 1.12479 0.500217 1.81503C0.487359 2.50527 1.03648 3.07524 1.72672 3.0881L11.725 3.27435L11.5387 13.2726C11.5259 13.9629 12.075 14.5328 12.7652 14.5457C13.4555 14.5585 14.0254 14.0094 14.0383 13.3192L14.2478 2.07113ZM3.58602 12.8514L13.8653 2.94804L12.1308 1.14766L1.85148 11.051L3.58602 12.8514Z" fill="currentColor"/>
</svg>
